<?xml version="1.0" encoding="utf-8"?>
<!-- Generator: Adobe Illustrator 11.0, SVG Export Plug-In  -->
<!DOCTYPE svg PUBLIC "-//W3C//DTD SVG 1.0//EN"    "http://www.w3.org/TR/2001/REC-SVG-20010904/DTD/svg10.dtd" [
	<!ENTITY ns_flows "http://ns.adobe.com/Flows/1.0/">
	<!ENTITY ns_svg "http://www.w3.org/2000/svg">
	<!ENTITY ns_xlink "http://www.w3.org/1999/xlink">
]>
<svg  xmlns="&ns_svg;" xmlns:xlink="&ns_xlink;" xmlns:a="http://ns.adobe.com/AdobeSVGViewerExtensions/3.0/"
	 width="192" height="228" viewBox="-0.004 -0.281 885 654" xml:space="preserve">
	<defs>
	</defs>
	<g>
		<path fill="#A41D23" d="M694.623,23.429C645.125,11.055,502.77-1.512,351.178,7.963c-148.52,9.284-151.612,78.901-157.796,128.404
			c-6.188,49.503,4.638,303.212,4.638,303.212s150.061,20.598,244.435,19.58c94.373-1.014,245.053,14.543,259.899-93.834
			C717.829,252.396,694.623,23.429,694.623,23.429z"/>
		<polygon fill="#A41D23" points="417.164,566.445 417.164,547.879 234.617,547.879 234.617,653.074 417.164,653.074 
			417.164,634.512 277.941,634.512 277.941,609.756 409.435,609.756 409.435,591.193 277.941,591.193 277.941,566.445 "/>
		<path fill="#A41D23" d="M163.988,594.291c0,0-84.314-3.098-96.69-3.098c-12.376,0-20.886-3.092-20.886-15.467
			c0-8.479,11.545-9.256,21.659-9.291v0.01h120.135v-18.566H46.844c0,0-42.201-1.547-42.201,29.395
			c0,25.521,14.695,31.711,37.901,31.711c23.205,0,81.995,3.873,92.825,3.873c0,0,14.695,1.426,14.695,11.604
			c0,6.184-3.868,10.051-10.827,10.051H6.187v18.564c0,0,144.355,0,152.624,0s32.245-3.867,32.245-29.391
			C191.056,599.705,177.912,595.84,163.988,594.291z"/>
		<polygon fill="#A41D23" points="884.992,548.109 696.563,548.109 696.563,570.082 769.961,570.082 769.961,653.074 
			810.012,653.074 810.012,570.082 884.992,570.082 "/>
		<path fill="#A41D23" d="M504.341,547.879c-20.083,0-39.452,13.934-39.452,30.17l-0.01,75.518h37.142v-39.943h111.601v39.451h37.13
			V547.879H504.341z M502.021,595.061v-7.729c0-8.119,7.729-19.334,21.653-19.334h89.947v27.063H502.021L502.021,595.061z"/>
		<path fill="#E2001A" d="M689.985,18.788C640.483,6.414,498.127-6.155,346.535,3.323C198.02,12.607,194.923,82.221,188.739,131.724
			c-6.184,49.503,4.643,303.217,4.643,303.217s150.061,20.594,244.435,19.582c94.368-1.014,245.048,14.537,259.898-93.836
			C713.191,247.752,689.985,18.788,689.985,18.788z"/>
		<path fill="#B2B2B2" stroke="#B2B2B2" stroke-width="0.45" d="M207.302,133.275c0,0-1.425-66.375,34.033-86.641
			c43.319-24.746,156.25-46.411,428.538-12.373c0,0,3.086,86.631,3.086,92.82c0,0-202.721-17.374-239.786-14.443
			c-26.298,2.075-13.924,15.994,0,18.028c0,0,204.208,33.55,239.786,41.273v35.595C672.959,207.536,352.724,144.103,207.302,133.275
			z"/>
		<path fill="#B2B2B2" stroke="#B2B2B2" stroke-width="0.45" d="M205.761,158.022c0,0,358.911,55.698,467.198,81.996
			c0,0,0,24.757,0,32.492c0,0-365.1-82-465.657-91.281L205.761,158.022z"/>
		<path fill="#B2B2B2" stroke="#B2B2B2" stroke-width="0.45" d="M207.302,207.536c0,0,351.181,54.146,465.657,99.006
			c0,0,9.282,74.259-27.843,97.464c-53.12,33.203-253.71,32.488-433.171,10.828c0,0-4.643-85.086,0-126.865
			c0,0,198.114,14.709,241.342,20.118c24.747,3.097,24.756-9.281,9.281-18.567c0,0-191.834-52.6-253.721-60.331L207.302,207.536z"/>
		<path fill="#4D4D4D" stroke="#4D4D4D" stroke-width="0.45" d="M216.588,142.557c0,0-1.43-66.379,34.033-86.641
			C293.94,31.169,406.866,9.505,679.149,43.543c0,0,3.092,86.63,3.092,92.825c0,0-202.723-17.379-239.786-14.454
			c-26.298,2.075-13.925,16.004,0,18.029c0,0,204.211,33.55,239.786,41.285v35.583C682.241,216.811,362.005,153.383,216.588,142.557
			z"/>
		<path fill="#4D4D4D" stroke="#4D4D4D" stroke-width="0.45" d="M215.037,167.303c0,0,358.921,55.697,467.204,82
			c0,0,0,24.752,0,32.487c0,0-365.095-82-465.653-91.282L215.037,167.303z"/>
		<path fill="#4D4D4D" stroke="#4D4D4D" stroke-width="0.45" d="M216.588,216.811c0,0,351.177,54.151,465.653,99.012
			c0,0,9.286,74.261-27.844,97.466c-53.119,33.201-253.716,32.486-433.171,10.828c0,0-4.638-85.088,0-126.861
			c0,0,198.113,14.705,241.342,20.113c24.747,3.097,24.756-9.281,9.28-18.563c0,0-191.833-52.604-253.72-60.335L216.588,216.811z"/>
		
			<linearGradient id="XMLID_16_" gradientUnits="userSpaceOnUse" x1="110.9033" y1="326.4771" x2="629.1578" y2="326.4771" gradientTransform="matrix(0.9 0 0 -0.9 111.3631 410.5822)">
			<stop  offset="0" style="stop-color:#9C9D9F"/>
			<stop  offset="0.0705" style="stop-color:#A2A3A5"/>
			<stop  offset="0.1654" style="stop-color:#B0B1B3"/>
			<stop  offset="0.2743" style="stop-color:#C6C7C9"/>
			<stop  offset="0.3925" style="stop-color:#E4E5E5"/>
			<stop  offset="0.4888" style="stop-color:#FFFFFF"/>
			<stop  offset="0.5653" style="stop-color:#FBFBFC"/>
			<stop  offset="0.6612" style="stop-color:#F0F0F1"/>
			<stop  offset="0.7676" style="stop-color:#DDDEDF"/>
			<stop  offset="0.8814" style="stop-color:#C1C2C4"/>
			<stop  offset="1" style="stop-color:#9C9D9F"/>
			<a:midPointStop  offset="0" style="stop-color:#9C9D9F"/>
			<a:midPointStop  offset="0.5" style="stop-color:#9C9D9F"/>
			<a:midPointStop  offset="0.0705" style="stop-color:#A2A3A5"/>
			<a:midPointStop  offset="0.5" style="stop-color:#A2A3A5"/>
			<a:midPointStop  offset="0.1654" style="stop-color:#B0B1B3"/>
			<a:midPointStop  offset="0.5" style="stop-color:#B0B1B3"/>
			<a:midPointStop  offset="0.2743" style="stop-color:#C6C7C9"/>
			<a:midPointStop  offset="0.5" style="stop-color:#C6C7C9"/>
			<a:midPointStop  offset="0.3925" style="stop-color:#E4E5E5"/>
			<a:midPointStop  offset="0.5" style="stop-color:#E4E5E5"/>
			<a:midPointStop  offset="0.4888" style="stop-color:#FFFFFF"/>
			<a:midPointStop  offset="0.5" style="stop-color:#FFFFFF"/>
			<a:midPointStop  offset="0.5653" style="stop-color:#FBFBFC"/>
			<a:midPointStop  offset="0.5" style="stop-color:#FBFBFC"/>
			<a:midPointStop  offset="0.6612" style="stop-color:#F0F0F1"/>
			<a:midPointStop  offset="0.5" style="stop-color:#F0F0F1"/>
			<a:midPointStop  offset="0.7676" style="stop-color:#DDDEDF"/>
			<a:midPointStop  offset="0.5" style="stop-color:#DDDEDF"/>
			<a:midPointStop  offset="0.8814" style="stop-color:#C1C2C4"/>
			<a:midPointStop  offset="0.5" style="stop-color:#C1C2C4"/>
			<a:midPointStop  offset="1" style="stop-color:#9C9D9F"/>
		</linearGradient>
		<path fill="url(#XMLID_16_)" d="M211.945,137.918c0,0-1.43-66.379,34.033-86.643c43.319-24.747,156.245-46.411,428.533-12.373
			c0,0,3.093,86.628,3.093,92.822c0,0-202.723-17.374-239.786-14.448c-26.299,2.075-13.931,16,0,18.029
			c0,0,204.207,33.549,239.786,41.28v35.588C677.603,212.173,357.363,148.747,211.945,137.918z"/>
		
			<linearGradient id="XMLID_17_" gradientUnits="userSpaceOnUse" x1="110.9009" y1="211.8589" x2="629.1575" y2="211.8589" gradientTransform="matrix(0.9 0 0 -0.9 111.3631 410.5822)">
			<stop  offset="0" style="stop-color:#9C9D9F"/>
			<stop  offset="0.0705" style="stop-color:#A2A3A5"/>
			<stop  offset="0.1654" style="stop-color:#B0B1B3"/>
			<stop  offset="0.2743" style="stop-color:#C6C7C9"/>
			<stop  offset="0.3925" style="stop-color:#E4E5E5"/>
			<stop  offset="0.4888" style="stop-color:#FFFFFF"/>
			<stop  offset="0.5653" style="stop-color:#FBFBFC"/>
			<stop  offset="0.6612" style="stop-color:#F0F0F1"/>
			<stop  offset="0.7676" style="stop-color:#DDDEDF"/>
			<stop  offset="0.8814" style="stop-color:#C1C2C4"/>
			<stop  offset="1" style="stop-color:#9C9D9F"/>
			<a:midPointStop  offset="0" style="stop-color:#9C9D9F"/>
			<a:midPointStop  offset="0.5" style="stop-color:#9C9D9F"/>
			<a:midPointStop  offset="0.0705" style="stop-color:#A2A3A5"/>
			<a:midPointStop  offset="0.5" style="stop-color:#A2A3A5"/>
			<a:midPointStop  offset="0.1654" style="stop-color:#B0B1B3"/>
			<a:midPointStop  offset="0.5" style="stop-color:#B0B1B3"/>
			<a:midPointStop  offset="0.2743" style="stop-color:#C6C7C9"/>
			<a:midPointStop  offset="0.5" style="stop-color:#C6C7C9"/>
			<a:midPointStop  offset="0.3925" style="stop-color:#E4E5E5"/>
			<a:midPointStop  offset="0.5" style="stop-color:#E4E5E5"/>
			<a:midPointStop  offset="0.4888" style="stop-color:#FFFFFF"/>
			<a:midPointStop  offset="0.5" style="stop-color:#FFFFFF"/>
			<a:midPointStop  offset="0.5653" style="stop-color:#FBFBFC"/>
			<a:midPointStop  offset="0.5" style="stop-color:#FBFBFC"/>
			<a:midPointStop  offset="0.6612" style="stop-color:#F0F0F1"/>
			<a:midPointStop  offset="0.5" style="stop-color:#F0F0F1"/>
			<a:midPointStop  offset="0.7676" style="stop-color:#DDDEDF"/>
			<a:midPointStop  offset="0.5" style="stop-color:#DDDEDF"/>
			<a:midPointStop  offset="0.8814" style="stop-color:#C1C2C4"/>
			<a:midPointStop  offset="0.5" style="stop-color:#C1C2C4"/>
			<a:midPointStop  offset="1" style="stop-color:#9C9D9F"/>
		</linearGradient>
		<path fill="url(#XMLID_17_)" d="M210.399,162.666c0,0,358.917,55.696,467.205,81.995c0,0,0,24.751,0,32.491
			c0,0-365.101-82.006-465.658-91.281L210.399,162.666z"/>
		
			<linearGradient id="XMLID_18_" gradientUnits="userSpaceOnUse" x1="110.9014" y1="96.7676" x2="629.4448" y2="96.7676" gradientTransform="matrix(0.9 0 0 -0.9 111.3631 410.5822)">
			<stop  offset="0" style="stop-color:#9C9D9F"/>
			<stop  offset="0.0705" style="stop-color:#A2A3A5"/>
			<stop  offset="0.1654" style="stop-color:#B0B1B3"/>
			<stop  offset="0.2743" style="stop-color:#C6C7C9"/>
			<stop  offset="0.3925" style="stop-color:#E4E5E5"/>
			<stop  offset="0.4888" style="stop-color:#FFFFFF"/>
			<stop  offset="0.5653" style="stop-color:#FBFBFC"/>
			<stop  offset="0.6612" style="stop-color:#F0F0F1"/>
			<stop  offset="0.7676" style="stop-color:#DDDEDF"/>
			<stop  offset="0.8814" style="stop-color:#C1C2C4"/>
			<stop  offset="1" style="stop-color:#9C9D9F"/>
			<a:midPointStop  offset="0" style="stop-color:#9C9D9F"/>
			<a:midPointStop  offset="0.5" style="stop-color:#9C9D9F"/>
			<a:midPointStop  offset="0.0705" style="stop-color:#A2A3A5"/>
			<a:midPointStop  offset="0.5" style="stop-color:#A2A3A5"/>
			<a:midPointStop  offset="0.1654" style="stop-color:#B0B1B3"/>
			<a:midPointStop  offset="0.5" style="stop-color:#B0B1B3"/>
			<a:midPointStop  offset="0.2743" style="stop-color:#C6C7C9"/>
			<a:midPointStop  offset="0.5" style="stop-color:#C6C7C9"/>
			<a:midPointStop  offset="0.3925" style="stop-color:#E4E5E5"/>
			<a:midPointStop  offset="0.5" style="stop-color:#E4E5E5"/>
			<a:midPointStop  offset="0.4888" style="stop-color:#FFFFFF"/>
			<a:midPointStop  offset="0.5" style="stop-color:#FFFFFF"/>
			<a:midPointStop  offset="0.5653" style="stop-color:#FBFBFC"/>
			<a:midPointStop  offset="0.5" style="stop-color:#FBFBFC"/>
			<a:midPointStop  offset="0.6612" style="stop-color:#F0F0F1"/>
			<a:midPointStop  offset="0.5" style="stop-color:#F0F0F1"/>
			<a:midPointStop  offset="0.7676" style="stop-color:#DDDEDF"/>
			<a:midPointStop  offset="0.5" style="stop-color:#DDDEDF"/>
			<a:midPointStop  offset="0.8814" style="stop-color:#C1C2C4"/>
			<a:midPointStop  offset="0.5" style="stop-color:#C1C2C4"/>
			<a:midPointStop  offset="1" style="stop-color:#9C9D9F"/>
		</linearGradient>
		<path fill="url(#XMLID_18_)" d="M211.945,212.173c0,0,351.176,54.152,465.658,99.012c0,0,9.28,74.254-27.85,97.459
			c-53.12,33.203-253.71,32.488-433.166,10.834c0,0-4.643-85.088,0-126.867c0,0,198.113,14.71,241.343,20.114
			c24.746,3.098,24.757-9.275,9.28-18.562c0,0-191.833-52.605-253.72-60.331L211.945,212.173z"/>
		<polygon fill="#E2001A" points="412.526,561.803 412.526,543.24 229.973,543.24 229.973,648.432 412.526,648.432 412.526,629.869 
			273.297,629.869 273.297,605.111 404.79,605.111 404.79,586.549 273.297,586.549 273.297,561.803 "/>
		<path fill="#E2001A" d="M159.35,589.652c0,0-84.319-3.098-96.693-3.098c-12.376,0-20.886-3.096-20.886-15.469
			c0-8.477,11.545-9.252,21.657-9.293v0.012h120.135V543.24H42.204c0,0-42.204-1.551-42.204,29.391
			c0,25.525,14.698,31.715,37.903,31.715c23.205,0,81.995,3.869,92.822,3.869c0,0,14.695,1.43,14.695,11.602
			c0,6.186-3.868,10.053-10.827,10.053H1.546v18.563c0,0,144.358,0,152.626,0c8.268,0,32.245-3.863,32.245-29.391
			C186.418,595.061,173.269,591.203,159.35,589.652z"/>
		<polygon fill="#E2001A" points="880.354,543.473 691.924,543.473 691.924,565.439 765.324,565.439 765.324,648.432 
			805.369,648.432 805.369,565.439 880.354,565.439 "/>
		<path fill="#E2001A" d="M499.698,543.24c-20.078,0-39.451,13.93-39.451,30.166l-0.01,75.52h37.14V608.98h111.606v39.451h37.13
			V543.24H499.698z M497.376,590.418v-7.73c0-8.113,7.73-19.334,21.66-19.334h89.947v27.064H497.376z"/>
	</g>
</svg>
